2025-04-23 04:11:42,365 - INFO - 
==================================================

2025-04-23 04:11:42,365 - INFO - 
script codename: orca

2025-04-23 04:11:42,366 - INFO - 
===============================================================================

2025-04-23 04:12:01,508 - INFO - Applied quirks (see `speechbrain.utils.quirks`): [disable_jit_profiling, allow_tf32]
2025-04-23 04:12:01,509 - INFO - Excluded quirks specified by the `SB_DISABLE_QUIRKS` environment (comma-separated list): []
2025-04-23 04:12:04,473 - INFO - 
===============================================================================

2025-04-23 04:12:04,474 - INFO - packages loaded

2025-04-23 04:12:06,476 - INFO - setting up folders...

2025-04-23 04:12:07,478 - INFO - 'temp' directory named 'imthetrashman'

2025-04-23 04:12:08,480 - INFO - Input folder set to '/app/processmesempai'
2025-04-23 04:12:08,480 - INFO - Clips (output) folder set to '/app/clips'

2025-04-23 04:12:10,483 - INFO - Setting parameters for whisperX. For more details, visit: https://github.com/m-bain/whisperX
2025-04-23 04:12:12,485 - INFO - whisper_arch = 'medium'
device = 'cpu' 
compute_type = 'int8'
language = 'en'

2025-04-23 04:14:19,326 - INFO - Lightning automatically upgraded your loaded checkpoint from v1.5.4 to v2.4.0. To apply the upgrade to your files permanently, run `python -m pytorch_lightning.utilities.upgrade_checkpoint ../usr/local/lib/python3.9/site-packages/whisperx/assets/pytorch_model.bin`
2025-04-23 04:14:19,412 - INFO - next section loads pyannote auth token

2025-04-23 04:14:22,416 - INFO - 
===================================================================

2025-04-23 04:14:24,573 - INFO - Lightning automatically upgraded your loaded checkpoint from v1.5.4 to v2.4.0. To apply the upgrade to your files permanently, run `python -m pytorch_lightning.utilities.upgrade_checkpoint ../root/.cache/torch/pyannote/models--pyannote--segmentation/snapshots/c4c8ceafcbb3a7a280c2d357aee9fbc9b0be7f9b/pytorch_model.bin`
2025-04-23 04:14:24,605 - INFO - Fetch hyperparams.yaml: Fetching from HuggingFace Hub 'speechbrain/spkrec-ecapa-voxceleb' if not cached
2025-04-23 04:14:24,717 - INFO - Fetch custom.py: Fetching from HuggingFace Hub 'speechbrain/spkrec-ecapa-voxceleb' if not cached
2025-04-23 04:14:25,063 - INFO - Fetch embedding_model.ckpt: Fetching from HuggingFace Hub 'speechbrain/spkrec-ecapa-voxceleb' if not cached
2025-04-23 04:14:33,136 - INFO - Fetch mean_var_norm_emb.ckpt: Fetching from HuggingFace Hub 'speechbrain/spkrec-ecapa-voxceleb' if not cached
2025-04-23 04:14:33,256 - INFO - Fetch classifier.ckpt: Fetching from HuggingFace Hub 'speechbrain/spkrec-ecapa-voxceleb' if not cached
2025-04-23 04:14:33,693 - INFO - Fetch label_encoder.txt: Fetching from HuggingFace Hub 'speechbrain/spkrec-ecapa-voxceleb' if not cached
2025-04-23 04:14:33,849 - INFO - Loading pretrained files for: embedding_model, mean_var_norm_emb, classifier, label_encoder
2025-04-23 04:14:34,301 - INFO - Lightning automatically upgraded your loaded checkpoint from v1.5.4 to v2.4.0. To apply the upgrade to your files permanently, run `python -m pytorch_lightning.utilities.upgrade_checkpoint ../root/.cache/torch/pyannote/models--pyannote--segmentation/snapshots/c4c8ceafcbb3a7a280c2d357aee9fbc9b0be7f9b/pytorch_model.bin`
2025-04-23 04:14:34,329 - INFO - Fetch hyperparams.yaml: Fetching from HuggingFace Hub 'speechbrain/spkrec-ecapa-voxceleb' if not cached
2025-04-23 04:14:34,381 - INFO - Fetch custom.py: Fetching from HuggingFace Hub 'speechbrain/spkrec-ecapa-voxceleb' if not cached
2025-04-23 04:14:34,670 - INFO - Fetch embedding_model.ckpt: Fetching from HuggingFace Hub 'speechbrain/spkrec-ecapa-voxceleb' if not cached
2025-04-23 04:14:34,767 - INFO - Fetch mean_var_norm_emb.ckpt: Fetching from HuggingFace Hub 'speechbrain/spkrec-ecapa-voxceleb' if not cached
2025-04-23 04:14:34,819 - INFO - Fetch classifier.ckpt: Fetching from HuggingFace Hub 'speechbrain/spkrec-ecapa-voxceleb' if not cached
2025-04-23 04:14:34,866 - INFO - Fetch label_encoder.txt: Fetching from HuggingFace Hub 'speechbrain/spkrec-ecapa-voxceleb' if not cached
2025-04-23 04:14:34,914 - INFO - Loading pretrained files for: embedding_model, mean_var_norm_emb, classifier, label_encoder
2025-04-23 04:14:35,085 - INFO - 
===================================================================

2025-04-23 04:14:35,085 - INFO - setup completed.

2025-04-23 04:14:37,090 - INFO - 
we will now begin processing 3 media files

2025-04-23 04:14:38,092 - INFO - 
The time required varies hugely on your computing hardware and selected parameters.

2025-04-23 04:14:38,093 - INFO - Good luck ;/

2025-04-23 04:14:38,094 - INFO - 
===============================

2025-04-23 04:14:38,104 - INFO - Processing video/audio file: /app/processmesempai/Jordan_Peterson_on_Andrew_Tate___Lex_Fridman_Podcast_Clips.mp4
2025-04-23 04:14:44,154 - INFO - Audio extracted to: imthetrashman/Jordan_Peterson_on_Andrew_Tate___Lex_Fridman_Podcast_Clips_audio.wav
2025-04-23 04:27:12,655 - INFO - Diarization completed. Retrieved speaker segments.
[nltk_data] Downloading package punkt to /root/nltk_data...
[nltk_data]   Package punkt is already up-to-date!
/usr/local/lib/python3.9/site-packages/pyannote/audio/models/blocks/pooling.py:104: UserWarning: std(): degrees of freedom is <= 0. Correction should be strictly less than the reduction factor (input numel divided by output numel). (Triggered internally at ../aten/src/ATen/native/ReduceOps.cpp:1760.)
  std = sequences.std(dim=-1, correction=1)
Model was trained with pyannote.audio 0.0.1, yours is 3.3.2. Bad things might happen unless you revert pyannote.audio to 0.x.
Model was trained with torch 1.10.0+cu102, yours is 2.2.0+cu121. Bad things might happen unless you revert torch to 1.x.
Model was trained with pyannote.audio 0.0.1, yours is 3.3.2. Bad things might happen unless you revert pyannote.audio to 0.x.
Model was trained with torch 1.10.0+cu102, yours is 2.2.0+cu121. Bad things might happen unless you revert torch to 1.x.
Model was trained with pyannote.audio 0.0.1, yours is 3.3.2. Bad things might happen unless you revert pyannote.audio to 0.x.
Model was trained with torch 1.10.0+cu102, yours is 2.2.0+cu121. Bad things might happen unless you revert torch to 1.x.
Segmenting audio:   0%|          | 0/12 [00:00<?, ?it/s]Segmenting audio: 100%|██████████| 12/12 [00:00<00:00, 156796.41it/s]2025-04-23 04:27:17,240 - INFO - Lightning automatically upgraded your loaded checkpoint from v1.5.4 to v2.4.0. To apply the upgrade to your files permanently, run `python -m pytorch_lightning.utilities.upgrade_checkpoint ../usr/local/lib/python3.9/site-packages/whisperx/assets/pytorch_model.bin`

Downloading: "https://download.pytorch.org/torchaudio/models/wav2vec2_fairseq_base_ls960_asr_ls960.pth" to /root/.cache/torch/hub/checkpoints/wav2vec2_fairseq_base_ls960_asr_ls960.pth
No language specified, language will be first be detected for each audio file (increases inference time).
Model was trained with pyannote.audio 0.0.1, yours is 3.3.2. Bad things might happen unless you revert pyannote.audio to 0.x.
Model was trained with torch 1.10.0+cu102, yours is 2.2.0+cu121. Bad things might happen unless you revert torch to 1.x.
  0%|          | 0.00/360M [00:00<?, ?B/s]  0%|          | 1.28M/360M [00:00<00:28, 13.3MB/s]  1%|          | 3.67M/360M [00:00<00:18, 20.2MB/s]  2%|▏         | 5.70M/360M [00:00<00:17, 20.7MB/s]  2%|▏         | 8.14M/360M [00:00<00:16, 22.3MB/s]  3%|▎         | 10.5M/360M [00:00<00:15, 23.1MB/s]  4%|▎         | 12.7M/360M [00:00<00:16, 22.3MB/s]  4%|▍         | 15.1M/360M [00:00<00:15, 23.2MB/s]  5%|▍         | 17.3M/360M [00:00<00:15, 22.5MB/s]  5%|▌         | 19.5M/360M [00:00<00:15, 22.6MB/s]  6%|▌         | 21.7M/360M [00:01<00:16, 21.9MB/s]  7%|▋         | 23.8M/360M [00:01<00:17, 19.9MB/s]  7%|▋         | 26.1M/360M [00:01<00:16, 21.1MB/s]  8%|▊         | 28.1M/360M [00:01<00:17, 19.9MB/s]  8%|▊         | 30.1M/360M [00:01<00:17, 19.8MB/s]  9%|▉         | 32.0M/360M [00:01<00:18, 18.8MB/s]  9%|▉         | 34.1M/360M [00:01<00:17, 19.6MB/s] 10%|█         | 36.2M/360M [00:01<00:16, 20.3MB/s] 11%|█         | 38.2M/360M [00:01<00:16, 20.6MB/s] 11%|█         | 40.2M/360M [00:02<00:16, 20.3MB/s] 12%|█▏        | 42.2M/360M [00:02<00:16, 20.2MB/s] 12%|█▏        | 44.1M/360M [00:02<00:16, 19.9MB/s] 13%|█▎        | 46.0M/360M [00:02<00:16, 19.5MB/s] 13%|█▎        | 48.2M/360M [00:02<00:15, 20.5MB/s] 14%|█▍        | 50.2M/360M [00:02<00:16, 20.0MB/s] 15%|█▍        | 52.2M/360M [00:02<00:15, 20.4MB/s] 15%|█▌        | 54.2M/360M [00:02<00:15, 20.1MB/s] 16%|█▌        | 56.2M/360M [00:02<00:15, 20.0MB/s] 16%|█▌        | 58.1M/360M [00:02<00:15, 19.8MB/s] 17%|█▋        | 60.2M/360M [00:03<00:15, 20.5MB/s] 17%|█▋        | 62.2M/360M [00:03<00:15, 20.3MB/s] 18%|█▊        | 64.1M/360M [00:03<00:16, 19.2MB/s] 18%|█▊        | 66.0M/360M [00:03<00:16, 19.0MB/s] 19%|█▉        | 68.2M/360M [00:03<00:15, 20.2MB/s] 19%|█▉        | 70.1M/360M [00:03<00:15, 19.3MB/s] 20%|██        | 72.1M/360M [00:03<00:15, 19.5MB/s] 21%|██        | 73.9M/360M [00:03<00:15, 19.4MB/s] 21%|██        | 75.8M/360M [00:03<00:15, 18.9MB/s] 22%|██▏       | 77.8M/360M [00:04<00:15, 19.3MB/s] 22%|██▏       | 79.9M/360M [00:04<00:14, 20.0MB/s] 23%|██▎       | 81.8M/360M [00:04<00:15, 19.4MB/s] 23%|██▎       | 84.1M/360M [00:04<00:13, 20.7MB/s] 24%|██▍       | 86.5M/360M [00:04<00:12, 22.2MB/s] 25%|██▍       | 88.7M/360M [00:04<00:13, 21.2MB/s] 25%|██▌       | 90.8M/360M [00:04<00:13, 21.6MB/s] 26%|██▌       | 93.2M/360M [00:04<00:12, 21.9MB/s] 27%|██▋       | 95.4M/360M [00:04<00:12, 22.2MB/s] 27%|██▋       | 97.6M/360M [00:04<00:12, 22.2MB/s] 28%|██▊       | 99.7M/360M [00:05<00:13, 20.2MB/s] 28%|██▊       | 102M/360M [00:05<00:12, 20.9MB/s]  29%|██▉       | 104M/360M [00:05<00:12, 21.6MB/s] 30%|██▉       | 106M/360M [00:05<00:12, 21.6MB/s] 30%|███       | 109M/360M [00:05<00:11, 22.4MB/s] 31%|███       | 111M/360M [00:05<00:12, 21.0MB/s] 31%|███▏      | 113M/360M [00:05<00:12, 20.1MB/s] 32%|███▏      | 115M/360M [00:05<00:11, 21.4MB/s] 33%|███▎      | 117M/360M [00:05<00:11, 21.7MB/s] 33%|███▎      | 120M/360M [00:06<00:12, 20.9MB/s] 34%|███▍      | 122M/360M [00:06<00:11, 21.2MB/s] 34%|███▍      | 124M/360M [00:06<00:11, 21.2MB/s] 35%|███▍      | 126M/360M [00:06<00:12, 20.1MB/s] 36%|███▌      | 128M/360M [00:06<00:11, 20.7MB/s] 36%|███▌      | 130M/360M [00:06<00:11, 21.7MB/s] 37%|███▋      | 132M/360M [00:06<00:11, 21.2MB/s] 37%|███▋      | 135M/360M [00:06<00:10, 22.1MB/s] 38%|███▊      | 137M/360M [00:06<00:10, 22.7MB/s] 39%|███▊      | 139M/360M [00:07<00:10, 22.3MB/s] 39%|███▉      | 141M/360M [00:07<00:10, 22.0MB/s] 40%|███▉      | 144M/360M [00:07<00:10, 22.1MB/s] 40%|████      | 146M/360M [00:07<00:10, 21.4MB/s] 41%|████      | 148M/360M [00:07<00:09, 22.5MB/s] 42%|████▏     | 150M/360M [00:07<00:09, 22.6MB/s] 42%|████▏     | 153M/360M [00:07<00:09, 23.9MB/s] 43%|████▎     | 155M/360M [00:07<00:08, 24.6MB/s] 44%|████▍     | 158M/360M [00:07<00:09, 21.9MB/s] 44%|████▍     | 160M/360M [00:07<00:09, 23.1MB/s] 45%|████▌     | 163M/360M [00:08<00:08, 24.0MB/s] 46%|████▌     | 165M/360M [00:08<00:09, 22.1MB/s] 46%|████▋     | 167M/360M [00:08<00:09, 22.3MB/s] 47%|████▋     | 169M/360M [00:08<00:09, 20.4MB/s] 48%|████▊     | 172M/360M [00:08<00:09, 21.4MB/s] 48%|████▊     | 174M/360M [00:08<00:08, 21.9MB/s] 49%|████▉     | 176M/360M [00:08<00:09, 20.8MB/s] 49%|████▉     | 178M/360M [00:08<00:09, 20.7MB/s] 50%|█████     | 180M/360M [00:08<00:08, 21.3MB/s] 51%|█████     | 183M/360M [00:09<00:09, 20.4MB/s] 51%|█████▏    | 185M/360M [00:09<00:08, 21.0MB/s] 52%|█████▏    | 187M/360M [00:09<00:08, 21.5MB/s] 52%|█████▏    | 189M/360M [00:09<00:08, 21.8MB/s] 53%|█████▎    | 191M/360M [00:09<00:07, 22.2MB/s] 54%|█████▎    | 194M/360M [00:09<00:07, 22.4MB/s] 54%|█████▍    | 196M/360M [00:09<00:07, 21.7MB/s] 55%|█████▍    | 198M/360M [00:09<00:07, 21.6MB/s] 55%|█████▌    | 200M/360M [00:09<00:07, 21.2MB/s] 56%|█████▌    | 202M/360M [00:10<00:08, 20.4MB/s] 57%|█████▋    | 204M/360M [00:10<00:07, 20.8MB/s] 57%|█████▋    | 206M/360M [00:10<00:07, 20.3MB/s] 58%|█████▊    | 208M/360M [00:10<00:07, 20.0MB/s] 58%|█████▊    | 210M/360M [00:10<00:07, 20.3MB/s] 59%|█████▉    | 212M/360M [00:10<00:07, 21.3MB/s] 60%|█████▉    | 214M/360M [00:10<00:07, 20.5MB/s] 60%|██████    | 216M/360M [00:10<00:07, 21.1MB/s] 61%|██████    | 219M/360M [00:10<00:07, 20.8MB/s] 61%|██████    | 221M/360M [00:10<00:07, 20.4MB/s] 62%|██████▏   | 222M/360M [00:11<00:07, 20.3MB/s] 62%|██████▏   | 224M/360M [00:11<00:06, 20.4MB/s] 63%|██████▎   | 226M/360M [00:11<00:07, 18.9MB/s] 64%|██████▎   | 229M/360M [00:11<00:06, 20.3MB/s] 64%|██████▍   | 231M/360M [00:11<00:08, 16.2MB/s] 65%|██████▍   | 233M/360M [00:11<00:08, 16.7MB/s] 65%|██████▌   | 235M/360M [00:11<00:06, 19.3MB/s] 66%|██████▌   | 237M/360M [00:11<00:06, 20.6MB/s] 67%|██████▋   | 240M/360M [00:12<00:06, 20.8MB/s] 67%|██████▋   | 242M/360M [00:12<00:06, 20.2MB/s] 68%|██████▊   | 244M/360M [00:12<00:06, 19.7MB/s] 68%|██████▊   | 246M/360M [00:12<00:06, 20.0MB/s] 69%|██████▉   | 248M/360M [00:12<00:05, 20.7MB/s] 69%|██████▉   | 250M/360M [00:12<00:05, 20.9MB/s] 70%|██████▉   | 252M/360M [00:12<00:05, 21.8MB/s] 71%|███████   | 254M/360M [00:12<00:05, 20.8MB/s] 71%|███████   | 256M/360M [00:12<00:05, 19.5MB/s] 72%|███████▏  | 259M/360M [00:13<00:04, 21.5MB/s] 73%|███████▎  | 261M/360M [00:13<00:04, 22.2MB/s] 73%|███████▎  | 263M/360M [00:13<00:04, 22.0MB/s] 74%|███████▎  | 265M/360M [00:13<00:04, 21.9MB/s] 74%|███████▍  | 268M/360M [00:13<00:04, 21.4MB/s] 75%|███████▍  | 270M/360M [00:13<00:04, 20.2MB/s] 75%|███████▌  | 272M/360M [00:13<00:04, 20.2MB/s] 76%|███████▌  | 274M/360M [00:13<00:04, 21.4MB/s] 77%|███████▋  | 276M/360M [00:13<00:04, 20.6MB/s] 77%|███████▋  | 278M/360M [00:13<00:04, 20.6MB/s] 78%|███████▊  | 280M/360M [00:14<00:03, 21.2MB/s] 78%|███████▊  | 282M/360M [00:14<00:03, 21.5MB/s] 79%|███████▉  | 284M/360M [00:14<00:04, 19.8MB/s] 79%|███████▉  | 286M/360M [00:14<00:03, 19.8MB/s] 80%|███████▉  | 288M/360M [00:15<00:14, 5.28MB/s] 80%|████████  | 289M/360M [00:17<00:30, 2.43MB/s] 81%|████████  | 291M/360M [00:17<00:21, 3.33MB/s] 81%|████████▏ | 293M/360M [00:17<00:15, 4.49MB/s] 82%|████████▏ | 295M/360M [00:17<00:12, 5.40MB/s] 82%|████████▏ | 296M/360M [00:17<00:10, 6.45MB/s] 83%|████████▎ | 298M/360M [00:17<00:07, 8.30MB/s] 83%|████████▎ | 300M/360M [00:17<00:05, 11.1MB/s] 84%|████████▍ | 302M/360M [00:17<00:04, 12.2MB/s] 85%|████████▍ | 304M/360M [00:17<00:04, 14.4MB/s] 85%|████████▌ | 307M/360M [00:18<00:03, 16.5MB/s] 86%|████████▌ | 309M/360M [00:18<00:03, 16.6MB/s] 86%|████████▌ | 311M/360M [00:18<00:03, 17.1MB/s] 87%|████████▋ | 312M/360M [00:18<00:02, 17.5MB/s] 87%|████████▋ | 314M/360M [00:18<00:02, 18.4MB/s] 88%|████████▊ | 317M/360M [00:18<00:02, 19.7MB/s] 89%|████████▊ | 319M/360M [00:18<00:02, 20.1MB/s] 89%|████████▉ | 321M/360M [00:18<00:02, 19.1MB/s] 90%|████████▉ | 323M/360M [00:18<00:02, 19.2MB/s] 90%|█████████ | 325M/360M [00:19<00:01, 19.5MB/s] 91%|█████████ | 327M/360M [00:19<00:01, 19.0MB/s] 91%|█████████▏| 329M/360M [00:19<00:01, 19.6MB/s] 92%|█████████▏| 331M/360M [00:19<00:01, 19.9MB/s] 92%|█████████▏| 333M/360M [00:19<00:01, 19.9MB/s] 93%|█████████▎| 335M/360M [00:19<00:01, 19.5MB/s] 93%|█████████▎| 336M/360M [00:19<00:01, 19.2MB/s] 94%|█████████▍| 338M/360M [00:19<00:01, 19.2MB/s] 94%|█████████▍| 340M/360M [00:19<00:01, 18.0MB/s] 95%|█████████▍| 342M/360M [00:20<00:01, 18.6MB/s] 96%|█████████▌| 344M/360M [00:20<00:00, 19.4MB/s] 96%|█████████▌| 346M/360M [00:20<00:00, 18.1MB/s] 97%|█████████▋| 348M/360M [00:20<00:00, 18.5MB/s] 97%|█████████▋| 350M/360M [00:20<00:00, 17.9MB/s] 98%|█████████▊| 352M/360M [00:20<00:00, 18.4MB/s] 98%|█████████▊| 354M/360M [00:20<00:00, 19.8MB/s] 99%|█████████▉| 356M/360M [00:20<00:00, 20.1MB/s] 99%|█████████▉| 358M/360M [00:20<00:00, 20.6MB/s]100%|█████████▉| 360M/360M [00:20<00:00, 19.3MB/s]100%|██████████| 360M/360M [00:21<00:00, 18.0MB/s]2025-04-23 04:34:56,464 - INFO - Use pytorch device_name: cpu
2025-04-23 04:34:56,465 - INFO - Load pretrained SentenceTransformer: all-roberta-large-v1

/usr/local/lib/python3.9/site-packages/huggingface_hub/file_download.py:797: FutureWarning: `resume_download` is deprecated and will be removed in version 1.0.0. Downloads always resume when possible. If you want to force a new download, use `force_download=True`.
  warnings.warn(
Batches:   0%|          | 0/2 [00:00<?, ?it/s]Batches:  50%|█████     | 1/2 [00:12<00:12, 12.28s/it]Batches: 100%|██████████| 2/2 [00:15<00:00,  6.78s/it]Batches: 100%|██████████| 2/2 [00:15<00:00,  7.60s/it]2025-04-23 04:36:22,691 - INFO - Clip 1: Start=2.97, End=56.196
2025-04-23 04:36:22,692 - INFO - Clip 2: Start=54.796, End=134.09
2025-04-23 04:36:22,692 - INFO - Clip 3: Start=139.794, End=216.214
2025-04-23 04:36:22,693 - INFO - Clip 4: Start=220.42, End=277.8
2025-04-23 04:36:22,693 - INFO - Clip 5: Start=273.558, End=322.612
2025-04-23 04:36:22,694 - INFO - Clip 6: Start=126.465, End=206.744
2025-04-23 04:36:22,695 - INFO - Clip 7: Start=203.343, End=224.185
2025-04-23 04:36:22,695 - INFO - Processing clip 1: -> /app/clips/Jordan_Peterson_on_Andrew_Tate___Lex_Fridman_Podcast_Clips/Jordan_Peterson_on_Andrew_Tate___Lex_Fridman_Podcast_Clips_clip1.mp4
2025-04-23 04:36:22,696 - INFO - → About to call resize() for clip 1
2025-04-23 04:46:16,517 - INFO - Detecting scenes...
2025-04-23 04:51:09,658 - INFO - ← resize() returned in 887.0s
2025-04-23 04:51:09,659 - INFO - Segments for clip 1: [{'start_time': 2.97, 'end_time': 7.06666, 'x': 313, 'y': 0}, {'start_time': 7.06666, 'end_time': 11.599989, 'x': 1060, 'y': 0}, {'start_time': 11.599989, 'end_time': 14.13332, 'x': 366, 'y': 0}, {'start_time': 14.13332, 'end_time': 56.196, 'x': 1014, 'y': 0}]
2025-04-23 04:52:09,105 - ERROR - Error in FFmpeg command for concatenating segments. Here is some helpful troubleshooting information:
 Terminal return code: '1'
Output: ''
Err Output: 'ffmpeg version 5.1.6-0+deb12u1 Copyright (c) 2000-2024 the FFmpeg developers
  built with gcc 12 (Debian 12.2.0-14)
  configuration: --prefix=/usr --extra-version=0+deb12u1 --toolchain=hardened --libdir=/usr/lib/x86_64-linux-gnu --incdir=/usr/include/x86_64-linux-gnu --arch=amd64 --enable-gpl --disable-stripping --enable-gnutls --enable-ladspa --enable-libaom --enable-libass --enable-libbluray --enable-libbs2b --enable-libcaca --enable-libcdio --enable-libcodec2 --enable-libdav1d --enable-libflite --enable-libfontconfig --enable-libfreetype --enable-libfribidi --enable-libglslang --enable-libgme --enable-libgsm --enable-libjack --enable-libmp3lame --enable-libmysofa --enable-libopenjpeg --enable-libopenmpt --enable-libopus --enable-libpulse --enable-librabbitmq --enable-librist --enable-librubberband --enable-libshine --enable-libsnappy --enable-libsoxr --enable-libspeex --enable-libsrt --enable-libssh --enable-libsvtav1 --enable-libtheora --enable-libtwolame --enable-libvidstab --enable-libvorbis --enable-libvpx --enable-libwebp --enable-libx265 --enable-libxml2 --enable-libxvid --enable-libzimg --enable-libzmq --enable-libzvbi --enable-lv2 --enable-omx --enable-openal --enable-opencl --enable-opengl --enable-sdl2 --disable-sndio --enable-libjxl --enable-pocketsphinx --enable-librsvg --enable-libmfx --enable-libdc1394 --enable-libdrm --enable-libiec61883 --enable-chromaprint --enable-frei0r --enable-libx264 --enable-libplacebo --enable-librav1e --enable-shared
  libavutil      57. 28.100 / 57. 28.100
  libavcodec     59. 37.100 / 59. 37.100
  libavformat    59. 27.100 / 59. 27.100
  libavdevice    59.  7.100 / 59.  7.100
  libavfilter     8. 44.100 /  8. 44.100
  libswscale      6.  7.100 /  6.  7.100
  libswresample   4.  7.100 /  4.  7.100
  libpostproc    56.  6.100 / 56.  6.100
[mov,mp4,m4a,3gp,3g2,mj2 @ 0x562566aadb40] Auto-inserting h264_mp4toannexb bitstream filter
Input #0, concat, from '/usr/local/lib/python3.9/site-packages/clipsai/media/0d7bd03ef55a4b5fb4f3e81407d38af8_media_file_paths.txt':
  Duration: N/A, start: -0.021333, bitrate: 1154 kb/s
  Stream #0:0(eng): Video: h264 (High) (avc1 / 0x31637661), yuv420p(tv, bt709, progressive), 606x1080 [SAR 1:1 DAR 101:180], 1027 kb/s, 30 fps, 30 tbr, 15360 tbn
    Metadata:
      handler_name    : VideoHandler
      vendor_id       : [0][0][0][0]
      encoder         : Lavc59.37.100 libx264
  Stream #0:1(eng): Audio: aac (LC) (mp4a / 0x6134706D), 48000 Hz, stereo, fltp, 127 kb/s
    Metadata:
      handler_name    : SoundHandler
      vendor_id       : [0][0][0][0]
Filtergraph 'setpts=PTS-STARTPTS' was defined for video output stream 0:0 but codec copy was selected.
Filtering and streamcopy cannot be used together.
'

2025-04-23 04:52:16,864 - ERROR - resize_video() failed – skipping this clip.
2025-04-23 04:52:16,865 - INFO - Processing clip 2: -> /app/clips/Jordan_Peterson_on_Andrew_Tate___Lex_Fridman_Podcast_Clips/Jordan_Peterson_on_Andrew_Tate___Lex_Fridman_Podcast_Clips_clip2.mp4
2025-04-23 04:52:16,866 - INFO - → About to call resize() for clip 2
2025-04-23 05:01:09,263 - INFO - Detecting scenes...
2025-04-23 05:05:28,965 - INFO - ← resize() returned in 792.1s
2025-04-23 05:05:28,969 - INFO - Segments for clip 2: [{'start_time': 54.796, 'end_time': 115.466554, 'x': 1031, 'y': 0}, {'start_time': 115.466554, 'end_time': 126.266544, 'x': 342, 'y': 0}, {'start_time': 126.266544, 'end_time': 134.09, 'x': 1008, 'y': 0}]
2025-04-23 05:06:46,869 - ERROR - Error in FFmpeg command for concatenating segments. Here is some helpful troubleshooting information:
 Terminal return code: '1'
Output: ''
Err Output: 'ffmpeg version 5.1.6-0+deb12u1 Copyright (c) 2000-2024 the FFmpeg developers
  built with gcc 12 (Debian 12.2.0-14)
  configuration: --prefix=/usr --extra-version=0+deb12u1 --toolchain=hardened --libdir=/usr/lib/x86_64-linux-gnu --incdir=/usr/include/x86_64-linux-gnu --arch=amd64 --enable-gpl --disable-stripping --enable-gnutls --enable-ladspa --enable-libaom --enable-libass --enable-libbluray --enable-libbs2b --enable-libcaca --enable-libcdio --enable-libcodec2 --enable-libdav1d --enable-libflite --enable-libfontconfig --enable-libfreetype --enable-libfribidi --enable-libglslang --enable-libgme --enable-libgsm --enable-libjack --enable-libmp3lame --enable-libmysofa --enable-libopenjpeg --enable-libopenmpt --enable-libopus --enable-libpulse --enable-librabbitmq --enable-librist --enable-librubberband --enable-libshine --enable-libsnappy --enable-libsoxr --enable-libspeex --enable-libsrt --enable-libssh --enable-libsvtav1 --enable-libtheora --enable-libtwolame --enable-libvidstab --enable-libvorbis --enable-libvpx --enable-libwebp --enable-libx265 --enable-libxml2 --enable-libxvid --enable-libzimg --enable-libzmq --enable-libzvbi --enable-lv2 --enable-omx --enable-openal --enable-opencl --enable-opengl --enable-sdl2 --disable-sndio --enable-libjxl --enable-pocketsphinx --enable-librsvg --enable-libmfx --enable-libdc1394 --enable-libdrm --enable-libiec61883 --enable-chromaprint --enable-frei0r --enable-libx264 --enable-libplacebo --enable-librav1e --enable-shared
  libavutil      57. 28.100 / 57. 28.100
  libavcodec     59. 37.100 / 59. 37.100
  libavformat    59. 27.100 / 59. 27.100
  libavdevice    59.  7.100 / 59.  7.100
  libavfilter     8. 44.100 /  8. 44.100
  libswscale      6.  7.100 /  6.  7.100
  libswresample   4.  7.100 /  4.  7.100
  libpostproc    56.  6.100 / 56.  6.100
[mov,mp4,m4a,3gp,3g2,mj2 @ 0x55c1ebb87700] Auto-inserting h264_mp4toannexb bitstream filter
Input #0, concat, from '/usr/local/lib/python3.9/site-packages/clipsai/media/ba2afea7479e4f5899f30a322fd6bf34_media_file_paths.txt':
  Duration: N/A, start: -0.021333, bitrate: 2013 kb/s
  Stream #0:0(eng): Video: h264 (High) (avc1 / 0x31637661), yuv420p(tv, bt709, progressive), 606x1080 [SAR 1:1 DAR 101:180], 1894 kb/s, 30 fps, 30 tbr, 15360 tbn
    Metadata:
      handler_name    : VideoHandler
      vendor_id       : [0][0][0][0]
      encoder         : Lavc59.37.100 libx264
  Stream #0:1(eng): Audio: aac (LC) (mp4a / 0x6134706D), 48000 Hz, stereo, fltp, 118 kb/s
    Metadata:
      handler_name    : SoundHandler
      vendor_id       : [0][0][0][0]
Filtergraph 'setpts=PTS-STARTPTS' was defined for video output stream 0:0 but codec copy was selected.
Filtering and streamcopy cannot be used together.
'

2025-04-23 05:06:53,319 - ERROR - resize_video() failed – skipping this clip.
2025-04-23 05:06:53,320 - INFO - Processing clip 3: -> /app/clips/Jordan_Peterson_on_Andrew_Tate___Lex_Fridman_Podcast_Clips/Jordan_Peterson_on_Andrew_Tate___Lex_Fridman_Podcast_Clips_clip3.mp4
2025-04-23 05:06:53,321 - INFO - → About to call resize() for clip 3
2025-04-23 05:16:18,595 - INFO - Detecting scenes...
2025-04-23 05:20:48,780 - INFO - ← resize() returned in 835.5s
2025-04-23 05:20:48,782 - INFO - Segments for clip 3: [{'start_time': 139.794, 'end_time': 151.06652, 'x': 1004, 'y': 0}, {'start_time': 151.06652, 'end_time': 158.633179, 'x': 657, 'y': 0}, {'start_time': 158.633179, 'end_time': 203.099802, 'x': 1052, 'y': 0}, {'start_time': 203.099802, 'end_time': 207.099799, 'x': 303, 'y': 0}, {'start_time': 207.099799, 'end_time': 210.466462, 'x': 1068, 'y': 0}, {'start_time': 210.466462, 'end_time': 216.214, 'x': 323, 'y': 0}]
2025-04-23 05:23:34,350 - ERROR - Error in FFmpeg command for concatenating segments. Here is some helpful troubleshooting information:
 Terminal return code: '1'
Output: ''
Err Output: 'ffmpeg version 5.1.6-0+deb12u1 Copyright (c) 2000-2024 the FFmpeg developers
  built with gcc 12 (Debian 12.2.0-14)
  configuration: --prefix=/usr --extra-version=0+deb12u1 --toolchain=hardened --libdir=/usr/lib/x86_64-linux-gnu --incdir=/usr/include/x86_64-linux-gnu --arch=amd64 --enable-gpl --disable-stripping --enable-gnutls --enable-ladspa --enable-libaom --enable-libass --enable-libbluray --enable-libbs2b --enable-libcaca --enable-libcdio --enable-libcodec2 --enable-libdav1d --enable-libflite --enable-libfontconfig --enable-libfreetype --enable-libfribidi --enable-libglslang --enable-libgme --enable-libgsm --enable-libjack --enable-libmp3lame --enable-libmysofa --enable-libopenjpeg --enable-libopenmpt --enable-libopus --enable-libpulse --enable-librabbitmq --enable-librist --enable-librubberband --enable-libshine --enable-libsnappy --enable-libsoxr --enable-libspeex --enable-libsrt --enable-libssh --enable-libsvtav1 --enable-libtheora --enable-libtwolame --enable-libvidstab --enable-libvorbis --enable-libvpx --enable-libwebp --enable-libx265 --enable-libxml2 --enable-libxvid --enable-libzimg --enable-libzmq --enable-libzvbi --enable-lv2 --enable-omx --enable-openal --enable-opencl --enable-opengl --enable-sdl2 --disable-sndio --enable-libjxl --enable-pocketsphinx --enable-librsvg --enable-libmfx --enable-libdc1394 --enable-libdrm --enable-libiec61883 --enable-chromaprint --enable-frei0r --enable-libx264 --enable-libplacebo --enable-librav1e --enable-shared
  libavutil      57. 28.100 / 57. 28.100
  libavcodec     59. 37.100 / 59. 37.100
  libavformat    59. 27.100 / 59. 27.100
  libavdevice    59.  7.100 / 59.  7.100
  libavfilter     8. 44.100 /  8. 44.100
  libswscale      6.  7.100 /  6.  7.100
  libswresample   4.  7.100 /  4.  7.100
  libpostproc    56.  6.100 / 56.  6.100
[mov,mp4,m4a,3gp,3g2,mj2 @ 0x559efa58d380] Auto-inserting h264_mp4toannexb bitstream filter
Input #0, concat, from '/usr/local/lib/python3.9/site-packages/clipsai/media/539e55d265d4421b98eb767fb49f36ef_media_file_paths.txt':
  Duration: N/A, start: -0.021333, bitrate: 1243 kb/s
  Stream #0:0(eng): Video: h264 (High) (avc1 / 0x31637661), yuv420p(tv, bt709, progressive), 606x1080 [SAR 1:1 DAR 101:180], 1118 kb/s, 30 fps, 30 tbr, 15360 tbn
    Metadata:
      handler_name    : VideoHandler
      vendor_id       : [0][0][0][0]
      encoder         : Lavc59.37.100 libx264
  Stream #0:1(eng): Audio: aac (LC) (mp4a / 0x6134706D), 48000 Hz, stereo, fltp, 124 kb/s
    Metadata:
      handler_name    : SoundHandler
      vendor_id       : [0][0][0][0]
Filtergraph 'setpts=PTS-STARTPTS' was defined for video output stream 0:0 but codec copy was selected.
Filtering and streamcopy cannot be used together.
'

2025-04-23 05:23:50,130 - ERROR - resize_video() failed – skipping this clip.
2025-04-23 05:23:50,130 - INFO - Processing clip 4: -> /app/clips/Jordan_Peterson_on_Andrew_Tate___Lex_Fridman_Podcast_Clips/Jordan_Peterson_on_Andrew_Tate___Lex_Fridman_Podcast_Clips_clip4.mp4
2025-04-23 05:23:50,131 - INFO - → About to call resize() for clip 4
2025-04-23 05:33:17,444 - INFO - Detecting scenes...
2025-04-23 05:37:59,192 - INFO - ← resize() returned in 849.1s
2025-04-23 05:37:59,193 - INFO - Segments for clip 4: [{'start_time': 220.42, 'end_time': 220.466452, 'x': 1074, 'y': 11}, {'start_time': 220.466452, 'end_time': 220.975344, 'x': 1180, 'y': 11}, {'start_time': 220.975344, 'end_time': 251.233089, 'x': 330, 'y': 0}, {'start_time': 251.233089, 'end_time': 256.133084, 'x': 990, 'y': 0}, {'start_time': 256.133084, 'end_time': 265.933075, 'x': 336, 'y': 0}, {'start_time': 265.933075, 'end_time': 271.499736, 'x': 1029, 'y': 0}, {'start_time': 271.499736, 'end_time': 273.166401, 'x': 353, 'y': 0}, {'start_time': 273.166401, 'end_time': 277.8, 'x': 1004, 'y': 0}]
2025-04-23 05:42:01,463 - ERROR - Error in FFmpeg command for concatenating segments. Here is some helpful troubleshooting information:
 Terminal return code: '1'
Output: ''
Err Output: 'ffmpeg version 5.1.6-0+deb12u1 Copyright (c) 2000-2024 the FFmpeg developers
  built with gcc 12 (Debian 12.2.0-14)
  configuration: --prefix=/usr --extra-version=0+deb12u1 --toolchain=hardened --libdir=/usr/lib/x86_64-linux-gnu --incdir=/usr/include/x86_64-linux-gnu --arch=amd64 --enable-gpl --disable-stripping --enable-gnutls --enable-ladspa --enable-libaom --enable-libass --enable-libbluray --enable-libbs2b --enable-libcaca --enable-libcdio --enable-libcodec2 --enable-libdav1d --enable-libflite --enable-libfontconfig --enable-libfreetype --enable-libfribidi --enable-libglslang --enable-libgme --enable-libgsm --enable-libjack --enable-libmp3lame --enable-libmysofa --enable-libopenjpeg --enable-libopenmpt --enable-libopus --enable-libpulse --enable-librabbitmq --enable-librist --enable-librubberband --enable-libshine --enable-libsnappy --enable-libsoxr --enable-libspeex --enable-libsrt --enable-libssh --enable-libsvtav1 --enable-libtheora --enable-libtwolame --enable-libvidstab --enable-libvorbis --enable-libvpx --enable-libwebp --enable-libx265 --enable-libxml2 --enable-libxvid --enable-libzimg --enable-libzmq --enable-libzvbi --enable-lv2 --enable-omx --enable-openal --enable-opencl --enable-opengl --enable-sdl2 --disable-sndio --enable-libjxl --enable-pocketsphinx --enable-librsvg --enable-libmfx --enable-libdc1394 --enable-libdrm --enable-libiec61883 --enable-chromaprint --enable-frei0r --enable-libx264 --enable-libplacebo --enable-librav1e --enable-shared
  libavutil      57. 28.100 / 57. 28.100
  libavcodec     59. 37.100 / 59. 37.100
  libavformat    59. 27.100 / 59. 27.100
  libavdevice    59.  7.100 / 59.  7.100
  libavfilter     8. 44.100 /  8. 44.100
  libswscale      6.  7.100 /  6.  7.100
  libswresample   4.  7.100 /  4.  7.100
  libpostproc    56.  6.100 / 56.  6.100
[mov,mp4,m4a,3gp,3g2,mj2 @ 0x556112c45900] Auto-inserting h264_mp4toannexb bitstream filter
Input #0, concat, from '/usr/local/lib/python3.9/site-packages/clipsai/media/5dfaeee4d82a4b018c6ece51643403ea_media_file_paths.txt':
  Duration: N/A, start: -0.021333, bitrate: 6023 kb/s
  Stream #0:0(eng): Video: h264 (High) (avc1 / 0x31637661), yuv420p(tv, bt709, progressive), 606x1080 [SAR 1:1 DAR 101:180], 5899 kb/s, 30 fps, 30 tbr, 15360 tbn
    Metadata:
      handler_name    : VideoHandler
      vendor_id       : [0][0][0][0]
      encoder         : Lavc59.37.100 libx264
  Stream #0:1(eng): Audio: aac (LC) (mp4a / 0x6134706D), 48000 Hz, stereo, fltp, 123 kb/s
    Metadata:
      handler_name    : SoundHandler
      vendor_id       : [0][0][0][0]
Filtergraph 'setpts=PTS-STARTPTS' was defined for video output stream 0:0 but codec copy was selected.
Filtering and streamcopy cannot be used together.
'

2025-04-23 05:42:22,123 - ERROR - resize_video() failed – skipping this clip.
2025-04-23 05:42:22,124 - INFO - Processing clip 5: -> /app/clips/Jordan_Peterson_on_Andrew_Tate___Lex_Fridman_Podcast_Clips/Jordan_Peterson_on_Andrew_Tate___Lex_Fridman_Podcast_Clips_clip5.mp4
2025-04-23 05:42:22,125 - INFO - → About to call resize() for clip 5
2025-04-23 05:51:51,679 - INFO - Detecting scenes...
2025-04-23 05:57:00,464 - INFO - ← resize() returned in 878.3s
2025-04-23 05:57:00,465 - INFO - Segments for clip 5: [{'start_time': 273.558, 'end_time': 306.299702, 'x': 1005, 'y': 0}, {'start_time': 306.299702, 'end_time': 317.233025, 'x': 351, 'y': 0}, {'start_time': 317.233025, 'end_time': 318.766357, 'x': 1024, 'y': 0}, {'start_time': 318.766357, 'end_time': 321.066354, 'x': 339, 'y': 0}, {'start_time': 321.066354, 'end_time': 322.612, 'x': 109, 'y': 144}]
2025-04-23 05:59:46,477 - ERROR - Error in FFmpeg command for concatenating segments. Here is some helpful troubleshooting information:
 Terminal return code: '1'
Output: ''
Err Output: 'ffmpeg version 5.1.6-0+deb12u1 Copyright (c) 2000-2024 the FFmpeg developers
  built with gcc 12 (Debian 12.2.0-14)
  configuration: --prefix=/usr --extra-version=0+deb12u1 --toolchain=hardened --libdir=/usr/lib/x86_64-linux-gnu --incdir=/usr/include/x86_64-linux-gnu --arch=amd64 --enable-gpl --disable-stripping --enable-gnutls --enable-ladspa --enable-libaom --enable-libass --enable-libbluray --enable-libbs2b --enable-libcaca --enable-libcdio --enable-libcodec2 --enable-libdav1d --enable-libflite --enable-libfontconfig --enable-libfreetype --enable-libfribidi --enable-libglslang --enable-libgme --enable-libgsm --enable-libjack --enable-libmp3lame --enable-libmysofa --enable-libopenjpeg --enable-libopenmpt --enable-libopus --enable-libpulse --enable-librabbitmq --enable-librist --enable-librubberband --enable-libshine --enable-libsnappy --enable-libsoxr --enable-libspeex --enable-libsrt --enable-libssh --enable-libsvtav1 --enable-libtheora --enable-libtwolame --enable-libvidstab --enable-libvorbis --enable-libvpx --enable-libwebp --enable-libx265 --enable-libxml2 --enable-libxvid --enable-libzimg --enable-libzmq --enable-libzvbi --enable-lv2 --enable-omx --enable-openal --enable-opencl --enable-opengl --enable-sdl2 --disable-sndio --enable-libjxl --enable-pocketsphinx --enable-librsvg --enable-libmfx --enable-libdc1394 --enable-libdrm --enable-libiec61883 --enable-chromaprint --enable-frei0r --enable-libx264 --enable-libplacebo --enable-librav1e --enable-shared
  libavutil      57. 28.100 / 57. 28.100
  libavcodec     59. 37.100 / 59. 37.100
  libavformat    59. 27.100 / 59. 27.100
  libavdevice    59.  7.100 / 59.  7.100
  libavfilter     8. 44.100 /  8. 44.100
  libswscale      6.  7.100 /  6.  7.100
  libswresample   4.  7.100 /  4.  7.100
  libpostproc    56.  6.100 / 56.  6.100
[mov,mp4,m4a,3gp,3g2,mj2 @ 0x5594e8e45f40] Auto-inserting h264_mp4toannexb bitstream filter
Input #0, concat, from '/usr/local/lib/python3.9/site-packages/clipsai/media/51960c23f8ac42aebde8a5f147b5f47b_media_file_paths.txt':
  Duration: N/A, start: -0.021333, bitrate: 1137 kb/s
  Stream #0:0(eng): Video: h264 (High) (avc1 / 0x31637661), yuv420p(tv, bt709, progressive), 606x1080 [SAR 1:1 DAR 101:180], 1014 kb/s, 30 fps, 30 tbr, 15360 tbn
    Metadata:
      handler_name    : VideoHandler
      vendor_id       : [0][0][0][0]
      encoder         : Lavc59.37.100 libx264
  Stream #0:1(eng): Audio: aac (LC) (mp4a / 0x6134706D), 48000 Hz, stereo, fltp, 123 kb/s
    Metadata:
      handler_name    : SoundHandler
      vendor_id       : [0][0][0][0]
Filtergraph 'setpts=PTS-STARTPTS' was defined for video output stream 0:0 but codec copy was selected.
Filtering and streamcopy cannot be used together.
'

2025-04-23 05:59:55,778 - ERROR - resize_video() failed – skipping this clip.
2025-04-23 05:59:55,779 - INFO - Processing clip 6: -> /app/clips/Jordan_Peterson_on_Andrew_Tate___Lex_Fridman_Podcast_Clips/Jordan_Peterson_on_Andrew_Tate___Lex_Fridman_Podcast_Clips_clip6.mp4
2025-04-23 05:59:55,780 - INFO - → About to call resize() for clip 6
2025-04-23 06:09:26,911 - INFO - Detecting scenes...
2025-04-23 06:13:59,321 - INFO - ← resize() returned in 843.5s
2025-04-23 06:13:59,326 - INFO - Segments for clip 6: [{'start_time': 126.465, 'end_time': 151.06652, 'x': 998, 'y': 0}, {'start_time': 151.06652, 'end_time': 158.633179, 'x': 657, 'y': 0}, {'start_time': 158.633179, 'end_time': 203.099802, 'x': 1047, 'y': 0}, {'start_time': 203.099802, 'end_time': 206.744, 'x': 308, 'y': 0}]
2025-04-23 06:15:49,319 - ERROR - Error in FFmpeg command for concatenating segments. Here is some helpful troubleshooting information:
 Terminal return code: '1'
Output: ''
Err Output: 'ffmpeg version 5.1.6-0+deb12u1 Copyright (c) 2000-2024 the FFmpeg developers
  built with gcc 12 (Debian 12.2.0-14)
  configuration: --prefix=/usr --extra-version=0+deb12u1 --toolchain=hardened --libdir=/usr/lib/x86_64-linux-gnu --incdir=/usr/include/x86_64-linux-gnu --arch=amd64 --enable-gpl --disable-stripping --enable-gnutls --enable-ladspa --enable-libaom --enable-libass --enable-libbluray --enable-libbs2b --enable-libcaca --enable-libcdio --enable-libcodec2 --enable-libdav1d --enable-libflite --enable-libfontconfig --enable-libfreetype --enable-libfribidi --enable-libglslang --enable-libgme --enable-libgsm --enable-libjack --enable-libmp3lame --enable-libmysofa --enable-libopenjpeg --enable-libopenmpt --enable-libopus --enable-libpulse --enable-librabbitmq --enable-librist --enable-librubberband --enable-libshine --enable-libsnappy --enable-libsoxr --enable-libspeex --enable-libsrt --enable-libssh --enable-libsvtav1 --enable-libtheora --enable-libtwolame --enable-libvidstab --enable-libvorbis --enable-libvpx --enable-libwebp --enable-libx265 --enable-libxml2 --enable-libxvid --enable-libzimg --enable-libzmq --enable-libzvbi --enable-lv2 --enable-omx --enable-openal --enable-opencl --enable-opengl --enable-sdl2 --disable-sndio --enable-libjxl --enable-pocketsphinx --enable-librsvg --enable-libmfx --enable-libdc1394 --enable-libdrm --enable-libiec61883 --enable-chromaprint --enable-frei0r --enable-libx264 --enable-libplacebo --enable-librav1e --enable-shared
  libavutil      57. 28.100 / 57. 28.100
  libavcodec     59. 37.100 / 59. 37.100
  libavformat    59. 27.100 / 59. 27.100
  libavdevice    59.  7.100 / 59.  7.100
  libavfilter     8. 44.100 /  8. 44.100
  libswscale      6.  7.100 /  6.  7.100
  libswresample   4.  7.100 /  4.  7.100
  libpostproc    56.  6.100 / 56.  6.100
[mov,mp4,m4a,3gp,3g2,mj2 @ 0x558450f8cb40] Auto-inserting h264_mp4toannexb bitstream filter
Input #0, concat, from '/usr/local/lib/python3.9/site-packages/clipsai/media/f3dbbf31d7ba416183c78c6ed99d068f_media_file_paths.txt':
  Duration: N/A, start: -0.021333, bitrate: 1165 kb/s
  Stream #0:0(eng): Video: h264 (High) (avc1 / 0x31637661), yuv420p(tv, bt709, progressive), 606x1080 [SAR 1:1 DAR 101:180], 1040 kb/s, 30 fps, 30 tbr, 15360 tbn
    Metadata:
      handler_name    : VideoHandler
      vendor_id       : [0][0][0][0]
      encoder         : Lavc59.37.100 libx264
  Stream #0:1(eng): Audio: aac (LC) (mp4a / 0x6134706D), 48000 Hz, stereo, fltp, 125 kb/s
    Metadata:
      handler_name    : SoundHandler
      vendor_id       : [0][0][0][0]
Filtergraph 'setpts=PTS-STARTPTS' was defined for video output stream 0:0 but codec copy was selected.
Filtering and streamcopy cannot be used together.
'

2025-04-23 06:15:58,725 - ERROR - resize_video() failed – skipping this clip.
2025-04-23 06:15:58,726 - INFO - Processing clip 7: -> /app/clips/Jordan_Peterson_on_Andrew_Tate___Lex_Fridman_Podcast_Clips/Jordan_Peterson_on_Andrew_Tate___Lex_Fridman_Podcast_Clips_clip7.mp4
2025-04-23 06:15:58,726 - INFO - → About to call resize() for clip 7
2025-04-23 06:25:33,974 - INFO - Detecting scenes...
2025-04-23 06:31:01,017 - INFO - ← resize() returned in 902.3s
2025-04-23 06:31:01,018 - INFO - Segments for clip 7: [{'start_time': 203.343, 'end_time': 207.099799, 'x': 297, 'y': 0}, {'start_time': 207.099799, 'end_time': 210.466462, 'x': 1065, 'y': 0}, {'start_time': 210.466462, 'end_time': 216.266456, 'x': 319, 'y': 0}, {'start_time': 216.266456, 'end_time': 220.466452, 'x': 1077, 'y': 11}, {'start_time': 220.466452, 'end_time': 220.975344, 'x': 1180, 'y': 11}, {'start_time': 220.975344, 'end_time': 224.185, 'x': 326, 'y': 0}]
2025-04-23 06:33:48,822 - ERROR - Error in FFmpeg command for concatenating segments. Here is some helpful troubleshooting information:
 Terminal return code: '1'
Output: ''
Err Output: 'ffmpeg version 5.1.6-0+deb12u1 Copyright (c) 2000-2024 the FFmpeg developers
  built with gcc 12 (Debian 12.2.0-14)
  configuration: --prefix=/usr --extra-version=0+deb12u1 --toolchain=hardened --libdir=/usr/lib/x86_64-linux-gnu --incdir=/usr/include/x86_64-linux-gnu --arch=amd64 --enable-gpl --disable-stripping --enable-gnutls --enable-ladspa --enable-libaom --enable-libass --enable-libbluray --enable-libbs2b --enable-libcaca --enable-libcdio --enable-libcodec2 --enable-libdav1d --enable-libflite --enable-libfontconfig --enable-libfreetype --enable-libfribidi --enable-libglslang --enable-libgme --enable-libgsm --enable-libjack --enable-libmp3lame --enable-libmysofa --enable-libopenjpeg --enable-libopenmpt --enable-libopus --enable-libpulse --enable-librabbitmq --enable-librist --enable-librubberband --enable-libshine --enable-libsnappy --enable-libsoxr --enable-libspeex --enable-libsrt --enable-libssh --enable-libsvtav1 --enable-libtheora --enable-libtwolame --enable-libvidstab --enable-libvorbis --enable-libvpx --enable-libwebp --enable-libx265 --enable-libxml2 --enable-libxvid --enable-libzimg --enable-libzmq --enable-libzvbi --enable-lv2 --enable-omx --enable-openal --enable-opencl --enable-opengl --enable-sdl2 --disable-sndio --enable-libjxl --enable-pocketsphinx --enable-librsvg --enable-libmfx --enable-libdc1394 --enable-libdrm --enable-libiec61883 --enable-chromaprint --enable-frei0r --enable-libx264 --enable-libplacebo --enable-librav1e --enable-shared
  libavutil      57. 28.100 / 57. 28.100
  libavcodec     59. 37.100 / 59. 37.100
  libavformat    59. 27.100 / 59. 27.100
  libavdevice    59.  7.100 / 59.  7.100
  libavfilter     8. 44.100 /  8. 44.100
  libswscale      6.  7.100 /  6.  7.100
  libswresample   4.  7.100 /  4.  7.100
  libpostproc    56.  6.100 / 56.  6.100
[mov,mp4,m4a,3gp,3g2,mj2 @ 0x5564b397d380] Auto-inserting h264_mp4toannexb bitstream filter
Input #0, concat, from '/usr/local/lib/python3.9/site-packages/clipsai/media/7db8d44386d8492d9d32ac6451ca1e10_media_file_paths.txt':
  Duration: N/A, start: -0.021333, bitrate: 1472 kb/s
  Stream #0:0(eng): Video: h264 (High) (avc1 / 0x31637661), yuv420p(tv, bt709, progressive), 606x1080 [SAR 1:1 DAR 101:180], 1343 kb/s, 30 fps, 30 tbr, 15360 tbn
    Metadata:
      handler_name    : VideoHandler
      vendor_id       : [0][0][0][0]
      encoder         : Lavc59.37.100 libx264
  Stream #0:1(eng): Audio: aac (LC) (mp4a / 0x6134706D), 48000 Hz, stereo, fltp, 128 kb/s
    Metadata:
      handler_name    : SoundHandler
      vendor_id       : [0][0][0][0]
Filtergraph 'setpts=PTS-STARTPTS' was defined for video output stream 0:0 but codec copy was selected.
Filtering and streamcopy cannot be used together.
'

2025-04-23 06:34:03,373 - ERROR - resize_video() failed – skipping this clip.
2025-04-23 06:34:03,374 - INFO - Processing complete for this video.
2025-04-23 06:34:03,374 - INFO - 
Processing complete

/usr/local/lib/python3.9/site-packages/pyannote/audio/models/blocks/pooling.py:104: UserWarning: std(): degrees of freedom is <= 0. Correction should be strictly less than the reduction factor (input numel divided by output numel). (Triggered internally at ../aten/src/ATen/native/ReduceOps.cpp:1760.)
  std = sequences.std(dim=-1, correction=1)
/usr/local/lib/python3.9/site-packages/pyannote/audio/models/blocks/pooling.py:104: UserWarning: std(): degrees of freedom is <= 0. Correction should be strictly less than the reduction factor (input numel divided by output numel). (Triggered internally at ../aten/src/ATen/native/ReduceOps.cpp:1760.)
  std = sequences.std(dim=-1, correction=1)
/usr/local/lib/python3.9/site-packages/pyannote/audio/models/blocks/pooling.py:104: UserWarning: std(): degrees of freedom is <= 0. Correction should be strictly less than the reduction factor (input numel divided by output numel). (Triggered internally at ../aten/src/ATen/native/ReduceOps.cpp:1760.)
  std = sequences.std(dim=-1, correction=1)
/usr/local/lib/python3.9/site-packages/pyannote/audio/models/blocks/pooling.py:104: UserWarning: std(): degrees of freedom is <= 0. Correction should be strictly less than the reduction factor (input numel divided by output numel). (Triggered internally at ../aten/src/ATen/native/ReduceOps.cpp:1760.)
  std = sequences.std(dim=-1, correction=1)
/usr/local/lib/python3.9/site-packages/pyannote/audio/models/blocks/pooling.py:104: UserWarning: std(): degrees of freedom is <= 0. Correction should be strictly less than the reduction factor (input numel divided by output numel). (Triggered internally at ../aten/src/ATen/native/ReduceOps.cpp:1760.)
  std = sequences.std(dim=-1, correction=1)
/usr/local/lib/python3.9/site-packages/pyannote/audio/models/blocks/pooling.py:104: UserWarning: std(): degrees of freedom is <= 0. Correction should be strictly less than the reduction factor (input numel divided by output numel). (Triggered internally at ../aten/src/ATen/native/ReduceOps.cpp:1760.)
  std = sequences.std(dim=-1, correction=1)
/usr/local/lib/python3.9/site-packages/pyannote/audio/models/blocks/pooling.py:104: UserWarning: std(): degrees of freedom is <= 0. Correction should be strictly less than the reduction factor (input numel divided by output numel). (Triggered internally at ../aten/src/ATen/native/ReduceOps.cpp:1760.)
  std = sequences.std(dim=-1, correction=1)
2025-04-23 06:34:03,795 - INFO - >>> SCRIPT IS EXITING NOW <<<
